ply
format ascii 1.0
element vertex 768
property float x
property float y
property float z
end_header
0.17338607 -1.1241276 2.1516404
0.17338607 -1.1241276 2.1516404
0.17338607 -1.1241276 2.1516404
0.17338607 -1.1241276 2.1516404
0.17338607 -1.1241276 2.1516404
0.17338607 -1.1241276 2.1516404
0.17338607 -1.1241276 2.1516404
0.17338607 -1.1241276 2.1516404
0.17338607 -1.1241276 2.1516404
0.17338607 -1.1241276 2.1516404
0.17338607 -1.1241276 2.1516404
0.17338607 -1.1241276 2.1516404
0.17338607 -1.1241276 2.1516404
0.17338607 -1.1241276 2.1516404
0.17338607 -1.1241276 2.1516404
0.17338607 -1.1241276 2.1516404
0.17338607 -1.1241276 2.1516404
0.17338607 -1.1241276 2.1516404
0.17338607 -1.1241276 2.1516404
0.17338607 -1.1241276 2.1516404
0.17338607 -1.1241276 2.1516404
0.17338607 -1.1241276 2.1516404
0.17338607 -1.1241276 2.1516404
0.17338607 -1.1241276 2.1516404
0.17338607 -1.1241276 2.1516404
0.17338607 -1.1241276 2.1516404
0.17338607 -1.1241276 2.1516404
0.17338607 -1.1241276 2.1516404
0.17338607 -1.1241276 2.1516404
0.17338607 -1.1241276 2.1516404
0.17338607 -1.1241276 2.1516404
0.17338607 -1.1241276 2.1516404
0.17338607 -1.1241276 2.1516404
0.17338607 -1.1241276 2.1516404
0.17338607 -1.1241276 2.1516404
0.17338607 -1.1241276 2.1516404
0.17338607 -1.1241276 2.1516404
0.17338607 -1.1241276 2.1516404
0.17338607 -1.1241276 2.1516404
0.17338607 -1.1241276 2.1516404
0.17338607 -1.1241276 2.1516404
0.17338607 -1.1241276 2.1516404
0.17338607 -1.1241276 2.1516404
0.17338607 -1.1241276 2.1516404
0.17338607 -1.1241276 2.1516404
0.17338607 -1.1241276 2.1516404
0.17338607 -1.1241276 2.1516404
0.17338607 -1.1241276 2.1516404
0.17338607 -1.1241276 2.1516404
0.17338607 -1.1241276 2.1516404
0.6226823 -0.38455442 1.6052122
0.9976607 0.12692353 1.7446821
0.29402286 -1.0110546 2.0224378
1.1955112 0.19412231 1.9090972
0.7663033 -1.0101708 2.1298006
1.1916779 0.20960405 2.0789156
1.8670986 0.3674124 2.080853
0.7480094 -0.99398535 2.3033583
0.9654116 -0.48447844 1.8100322
0.796389 -0.108580545 1.6599027
1.6578732 0.42073578 2.212161
0.087767005 -1.0871688 2.2951865
0.9356747 -0.8235859 1.8361198
1.1514821 0.06851735 1.6540966
0.93858254 0.6809208 3.4295678
1.4248818 0.46703592 2.1902487
0.88666576 -0.35868183 1.7048746
0.48578238 0.11941159 3.3142178
0.46873876 -1.1290171 1.6417271
1.4428278 0.2314502 1.7420268
0.32848373 0.2458726 1.275944
0.82512003 -1.0090191 1.8820912
1.3067707 -0.53050154 2.1835096
0.19790332 -0.5292276 3.2035966
1.3183252 -0.2925744 2.6509523
0.70694846 0.42020684 3.367283
0.4912464 0.016066369 3.4907453
0.63984466 1.0631387 2.833445
1.0739449 -0.09746817 2.8472419
0.9352797 0.014372402 2.9136217
0.3366852 0.57219 1.5470675
-0.28126454 -0.43504322 1.1871014
-1.5988997 1.0175514 1.2544358
1.1523722 0.46170446 1.9879717
-1.4296598 1.0056907 0.88921416
0.86562085 0.18142484 3.0950902
-0.72046316 0.47541413 3.3739364
-0.34221038 -0.43538886 1.1461544
1.0731977 0.43893752 2.875863
-0.209515 -0.5392519 0.9976187
0.77458286 0.67298794 1.9350275
1.3068819 0.4953207 2.1766906
0.730322 -0.8392229 2.896856
-1.4936316 1.1683315 2.7195127
-0.19450809 0.24436422 3.5387838
-1.253372 1.1109779 2.7024324
-0.29878542 0.49494797 1.1383864
0.5240008 0.9198713 2.0781872
2.0002456 0.44461855 2.0300999
0.053141277 -0.4692225 0.89974797
-0.28732067 0.97255415 2.233996
-0.3821974 0.10441406 3.5496328
0.8037575 0.77954906 2.6885638
0.49383655 0.81867576 2.8761058
-0.32217705 0.82401764 2.675152
0.16834997 -0.3941252 1.0311923
1.7130151 0.36888394 2.276749
0.5322365 -0.62505674 1.1950759
0.19797385 -0.05819706 3.443226
0.45432073 1.0314915 2.4479506
0.03079279 0.7071593 2.9379687
-1.5358104 -0.6781219 1.4701991
-0.5522666 -0.6194066 1.6544719
0.260041 1.0633812 2.6904082
-0.83141834 0.66017115 2.1808505
-0.9731422 -0.8944989 1.2128077
-0.25862762 0.35978127 1.530228
1.4725621 0.47848338 1.7632225
0.1517818 0.8586919 1.6662333
-0.22465125 1.0098081 2.2314942
-0.5310604 -0.8962196 4.0308185
-0.38059226 0.9784213 1.9969987
-0.19310305 0.8568525 2.6955795
0.032068588 0.87166935 2.7945788
-0.93349725 0.5968276 1.9318999
-0.6046923 0.65027773 1.8573552
1.1916763 0.80152285 2.964168
-0.11610437 -0.4597525 0.96091807
-0.9788382 -1.68555 2.8428752
0.25614655 -0.4218773 3.9124653
0.6201347 0.049120687 3.6551518
0.39924216 0.51833236 1.2196771
-0.69481474 -1.5963215 2.5058787
0.93019843 0.46949947 3.7805436
-0.11416613 0.549842 1.5252327
-0.44657585 0.41455182 3.0124266
0.65108114 -0.07236418 3.34637
0.20115332 0.19271626 1.1420703
0.25361097 1.0156817 1.7018237
-0.36853993 -0.86881995 1.5501325
-0.3343613 0.6799576 2.8859847
1.4547796 0.3457338 2.7768598
0.2886964 -0.3075651 3.5544243
0.36330256 -0.4112128 3.2937076
-0.9564101 0.03764549 2.3321931
-0.461462 0.32753342 3.0750356
-0.25416696 0.93475556 2.0951562
-0.46956533 0.9676458 2.4224164
-0.9041819 -0.42879358 2.0881946
-0.111246645 -1.1355563 1.4450703
0.14770907 -1.3160369 3.1242378
0.17182386 -1.2000692 3.9160683
0.08496324 -1.5548121 3.6000874
0.23769256 -1.0738657 3.5219693
-0.80152816 0.5109652 2.683506
-0.8745589 0.336726 2.525559
-0.25790477 -0.90756065 0.9818417
0.7721584 -1.2867929 3.2192602
-0.34722084 -0.03296624 1.4911541
-0.085723504 -1.0029798 1.5522652
-0.58564204 -0.10351871 2.9779112
-0.6106732 -0.027401706 2.929436
-0.6219875 -0.48994008 2.5325642
0.35760292 0.4423898 3.1482813
0.85205233 -0.57116026 3.0439093
-0.53136265 -0.06542724 2.9892137
0.7736696 0.21801761 3.141091
-0.66404325 -0.8690365 1.9734365
-0.50193745 0.28858665 3.025962
-0.9556595 0.069105774 2.3141656
-0.32859126 -0.7303911 2.738135
1.421921 -0.66942346 1.6248367
-0.16365734 -1.0932621 2.5432453
-0.32253245 -0.42971078 2.892213
-0.24419543 -1.19486 2.4820735
0.2726015 -1.1470408 2.246353
-0.28619698 -1.1713116 2.207515
-0.5674047 -1.2082205 2.2859662
-0.57910585 -1.180798 2.3518293
0.47876164 -1.1889622 2.0096552
-0.36139375 -1.0984427 2.4039512
0.92551106 -0.9938273 2.0008376
0.55693036 -1.2139552 2.7317388
0.49448296 -1.1670898 2.477387
-0.23956953 -1.0911907 1.8508619
0.8974155 -1.06195 2.2691593
0.16422863 -1.1201165 1.4875021
-0.055022225 -1.1075995 1.6594651
0.48341423 -1.1802256 2.0676594
0.40695786 -1.0947449 1.863424
0.9024866 -0.1003099 1.5052623
-0.43715543 -0.82602465 1.8262846
-0.3999336 -0.8930291 1.7711571
-0.16158651 -1.0748755 1.6560315
0.22543807 -1.1052178 2.1131036
-0.20856915 -0.81611025 1.3367964
0.020824416 -0.9487123 1.4247979
0.40913782 -1.0185925 1.9956701
0.48686975 -0.03762739 3.5939476
0.82272285 -0.38951275 1.753857
0.9028301 -0.8931423 2.0114992
0.88578105 -0.9243414 2.0454092
0.09075986 -0.8913314 1.2756742
0.29008994 -0.11241257 3.562693
0.9219976 -0.9757044 2.4810169
1.6395253 0.36055595 2.1550128
0.82195526 0.39624172 3.728673
0.65132535 -0.19685663 1.5893866
0.71616006 -0.8756324 1.9220188
0.44028875 -0.9025145 1.293283
0.8833841 -0.39664093 1.763734
1.0462482 -0.115877256 1.7483464
1.4162188 0.27931792 2.4327922
0.991008 -0.8835937 2.0070488
0.4746049 -0.33636317 1.5474814
1.3913403 1.1617668 3.2610013
0.8688769 -0.27544633 2.789019
0.6616031 -0.46113473 2.8019707
0.22019057 0.041069183 3.265707
0.31149974 0.32428947 1.2875533
0.41987336 0.4974668 1.303428
0.5468331 -0.42995483 1.5624799
0.6369566 0.05826227 1.3949077
0.623178 -0.25341135 1.5605754
0.52616966 -0.5998206 1.6395367
0.4260184 -0.5479571 3.2820902
0.44728974 -0.61198294 3.4827013
0.13850257 -0.18000086 1.2752228
0.5951529 0.7008518 1.7011088
0.149972 -0.4327828 0.98502016
-1.4104964 0.8870448 1.0006789
-1.6074547 0.91234463 2.0632706
-1.3664966 0.85093266 0.975452
1.0677633 0.6413239 2.560343
0.34788775 0.9061162 2.1508331
-1.0116562 0.8000276 3.5087554
-0.7220704 0.5885818 3.5003412
0.41771257 0.7262094 2.9817543
0.3787378 -0.053139623 3.7994213
0.29260233 1.0990642 2.651034
0.8330217 0.92986524 2.4305172
0.31607318 -0.44650602 1.146805
0.060245316 1.0759959 2.2105565
-0.39821452 -0.033776157 3.9875848
0.4350318 -0.7605152 1.3647245
-0.86306083 0.7068272 2.204747
0.37097624 0.9653649 2.3541415
1.247297 0.2651116 1.724676
-0.42633867 -0.6142025 0.6490249
-1.6332163 0.74912685 2.2421165
0.55119616 -0.5423324 0.72486144
0.06664087 0.96406245 1.8523709
0.20928805 1.0293018 1.9527951
-0.3163756 0.7874242 2.7374642
-1.3389393 0.47813734 2.596788
-0.78521544 0.64959306 2.1758857
0.090063885 0.9215134 1.6903964
1.4665785 0.46916488 1.7839462
-0.70019054 -0.970725 3.499283
0.0276622 0.880995 2.7988975
-0.25312918 -0.5222929 1.0492058
-0.032371573 -0.4990065 3.8509223
-1.2721417 -1.540865 1.96974
0.36161658 0.23891817 1.1428733
0.4260029 0.21572918 0.9558007
-0.6242833 -1.3099626 3.5234914
-0.072957546 -0.62377506 0.8554161
-0.46892822 0.8949582 2.0730445
-0.5774816 0.6676565 2.547411
0.74726385 0.39146417 3.6778636
-0.21094742 0.77556396 2.8151872
-0.0046900325 -1.1309602 4.22292
-0.74118024 0.7217107 1.9389374
-0.5275961 -0.8528704 2.6674526
0.22073846 -0.4809407 3.1627734
0.02695187 -0.9826636 4.3465586
-0.4167855 0.4337199 3.1065805
0.20931774 -0.19102642 4.363777
-0.111387715 -1.1849806 1.4986339
-0.23623237 -0.6549963 1.4915135
-0.09414622 -1.2234789 2.7834089
-0.42825952 0.8436579 2.6752446
-0.6156025 0.6363497 2.856831
0.27160478 1.1387364 2.8505166
-0.89956987 -0.19016173 2.518068
-0.4334111 0.07762162 3.1889281
-1.2190037 0.5923845 1.6556336
-0.93461686 0.30203167 1.8156176
-0.91471964 0.13914599 2.7112448
-0.4032463 -0.4151752 1.69468
0.32558656 -1.4586926 3.241584
-0.99452037 0.3949922 2.2173588
-0.8799001 0.46936914 2.6434472
0.47488248 -0.84854203 3.2717712
-0.97382164 0.35097224 2.2343955
0.1703708 0.57573736 3.269229
-0.88142914 -0.09056335 2.657994
0.23810755 0.018873574 3.2584448
-0.94639945 -0.538981 2.2313082
-1.0637035 0.61148256 2.1049893
-0.78330874 0.2557183 1.8697478
-0.23035403 -0.67036355 1.2364138
-0.92595845 0.21452619 2.2342997
-1.0305128 -0.45491755 2.3068225
-0.6168861 -0.9164782 2.2120519
0.7197037 -0.396996 3.4642358
-0.15618417 -0.32626006 1.3334739
0.3128528 -1.1098906 1.7288886
-0.9650044 0.070724815 2.3867724
0.74399537 -0.26061055 3.6472476
-0.6938879 -0.81966484 2.1059244
-0.5418741 -0.9100588 2.0804543
1.2279689 -0.36979246 2.6403556
-0.45984474 -1.0026816 2.627472
0.3796881 -1.0203465 1.9686853
-0.89264697 -0.13142517 2.5243828
1.3733753 -0.8663583 1.4685733
-0.19407079 0.47746164 3.128764
-0.26351413 -0.45975146 2.9379342
0.41533613 -1.1278182 2.3327603
0.1528463 -0.46138227 2.8661687
0.18754022 -0.57946897 2.824993
0.27217522 -0.42087302 3.088183
-9.110346 -17.576578 10.118226
-9.101691 -17.563248 10.111978
-9.106364 -17.570896 10.115441
-0.23311876 -1.3498937 2.8929343
0.21588413 -0.98881495 2.6298523
-0.1454528 -1.2836207 2.4224114
0.2893251 -0.83281815 2.690483
0.3038389 -0.6089334 2.867152
-0.39462855 -1.2192955 2.6490734
0.33377603 -1.1932737 2.2724376
-0.7096595 -0.98546267 2.113219
-0.6613029 -1.129094 2.2124329
-0.41769528 -1.1958578 2.7226906
0.56350327 -1.299468 2.5355082
0.17178607 -1.1264973 2.7797742
0.026783705 -1.1305075 2.097591
0.0011065006 -1.1205683 2.1681266
0.4693067 -1.2281113 2.6129546
-0.21229592 -1.0988209 2.4729614
0.15010719 -1.1842546 1.7436495
-0.20244642 -1.0961094 2.098555
-0.006962204 -1.0849149 1.9483469
-0.20400675 -0.94481164 0.62821203
-0.85513157 -0.6801604 2.0820565
0.049043346 -1.0394683 0.7428476
0.04804332 -1.0489393 1.9969015
-0.09170731 -1.0310643 2.0148811
0.09174256 -1.1247535 1.1558753
1.4277016 0.30764675 2.029149
1.074084 -1.1016387 2.4030154
1.0210077 0.102678016 1.7172527
-0.09383671 -0.98802304 1.2877995
-0.19161183 -0.9579316 1.9365253
0.55456376 -0.16017303 3.7164803
0.24557324 -1.0989499 1.8628286
-0.1644123 -1.0878671 2.6305223
0.19018418 -1.0337262 1.0064949
0.8175464 0.13234481 3.2621315
1.0151854 0.018924523 0.8230975
1.7056587 0.33289996 2.2059286
0.7398591 -0.86633813 1.8267319
0.6293808 -0.9874353 2.4185119
0.9553777 -0.9564818 2.134321
0.07310317 -0.93395746 2.158285
0.6833685 -0.9959545 1.9709948
0.80586153 -0.8049901 1.8123704
0.2310169 -0.9745559 1.4016323
1.4993601 0.24977718 1.7647556
0.2455607 -1.0322891 1.9046847
1.8075217 0.426376 2.3783083
0.84590876 0.5601077 3.2174294
1.1453915 0.9445268 3.4185524
1.4549489 0.5113894 2.2771237
1.580179 0.4763738 2.0985422
1.6574296 1.4177958 2.5931177
1.00257 0.7023974 3.0313706
0.7771995 -1.1469405 2.6085992
0.61826515 -0.24813305 1.4778032
1.4792043 0.51234573 2.5124314
1.4789318 0.52554095 2.453923
1.3923274 -0.2548741 2.1757927
0.4108582 -0.7002636 1.6182127
0.4017946 -0.595277 1.4602625
0.8514978 -0.28257293 3.028717
0.10679689 -0.4938004 3.1912074
1.3566853 0.2107015 2.5584269
0.33058286 -0.1837479 1.2299434
0.42726037 -0.5621765 3.3878813
0.25415862 0.056338422 1.3477534
0.41799062 0.43246204 1.50205
0.62697446 0.6061116 2.824097
-0.8371588 0.6205572 1.4523425
0.47182614 0.49192408 1.5280808
0.74525994 0.6425634 1.8831153
1.0803217 -0.36580685 3.1924338
1.295724 0.41335878 2.5891335
1.2707806 0.4251378 2.66203
0.88903207 0.6175698 1.9244363
0.6514515 0.7903709 1.8018888
-0.61717224 0.4551506 1.2606244
-0.14670804 0.84881 1.7223412
1.0224838 0.60136074 2.8060615
-1.2360127 0.657981 2.5702884
0.33717802 -0.48660243 1.1491452
0.35403353 -0.4966548 1.2540289
-0.82121575 0.6373309 1.5565631
-1.1938475 0.49487153 4.0984564
-0.6700401 0.6558079 1.9469335
-1.0271696 0.71564376 2.3365703
-0.45058608 0.0018966906 4.008542
0.15229999 0.8213688 2.8847756
0.5625662 -0.09725854 3.7316635
0.91636914 0.72344655 2.2863176
0.48708776 0.85612714 1.7929395
0.965002 0.11285881 1.2095351
0.6084466 0.031350773 3.8996847
0.4185864 -0.5108932 1.1770142
0.73909074 0.84136987 2.0709662
-0.62277097 -0.59459734 3.4169161
-0.4224351 -0.7755255 1.3083912
0.428492 0.6154884 3.0810153
0.44544384 -0.51048386 0.8365562
0.50753754 0.7169765 1.639124
-0.3487846 -0.5763411 0.70456505
1.0811207 0.43047926 3.8207643
0.38314334 -0.59419435 0.87122244
-0.19107834 0.8364957 2.7646506
-0.672211 0.71498346 2.3172512
-1.1858977 -1.3183029 2.8304355
1.493641 0.49885678 2.3273797
-0.91501033 -1.1239166 1.4337983
-0.34937754 0.95308983 2.387882
0.2925793 -0.40287268 1.1540326
-0.014280668 0.89220303 1.8820544
-0.2031071 0.8053852 1.7923281
-0.012451862 0.87495756 2.803055
0.97818464 0.5331032 4.0726476
-0.26228634 0.8373499 1.9371125
-0.18138212 1.0018517 2.547743
-0.811866 0.7462033 2.4217072
0.4696568 -1.1250905 2.9745002
-0.9773737 0.002041039 2.2630982
0.24606961 -0.3668305 4.3958073
0.48078582 -1.0587041 3.0240724
0.3061252 1.1469369 1.9669607
0.17410651 -0.88512343 3.2916853
-0.6213093 0.30993307 3.0193083
-0.23354557 -0.6971572 1.5217197
0.46409303 -1.0727097 3.006546
-1.0175824 -0.0351525 2.3345428
0.47940102 -0.13818696 3.4023077
-1.0310655 -0.6024237 2.2915184
-0.9515533 -0.33594316 2.3330874
-0.25885934 -0.6764341 1.2620747
0.36948028 -0.7532151 3.5015564
-1.2770826 0.53217524 1.7058165
-1.0131516 0.1598725 2.45449
-0.98255736 0.34374285 1.7259078
-0.74268687 -0.87176305 2.507716
-0.62961066 -0.4565551 2.5805101
-0.8134862 0.6663069 2.471561
0.11668341 0.48254147 3.2104132
-0.9537465 0.26167706 2.3289597
-0.60494107 -0.42708677 2.5799706
-0.90265024 -0.12385428 2.2814777
-0.5406255 0.18307559 2.993144
-0.46693707 0.2927964 3.087755
-0.9455557 -0.7732081 2.238242
-0.24852172 -0.9199841 1.6335627
-0.7606046 -0.27301282 2.4303443
-0.55884206 -0.9126786 2.0343044
0.67792845 -0.112071395 3.687898
-0.7261486 -0.84484464 2.0667145
-0.8768098 -0.6154626 1.9937936
0.8405538 0.09862697 3.1996112
-0.0784214 -0.058552813 3.1063077
-0.15391 -0.45224175 2.9098077
0.07331215 -1.0802958 2.2366278
-0.84030795 -0.5999791 2.5045214
-0.19051856 -0.25332943 2.9924457
-0.3457514 0.0069696438 3.1548362
0.57948166 -1.1832664 2.7606144
-0.01813449 -1.1515639 2.5326853
0.36520657 -0.6005277 2.606691
-0.5879191 -1.2139167 2.391307
0.19973259 -1.3022405 2.4554045
0.30953503 -1.2848184 2.6909761
-0.15760165 -0.99039626 1.6365519
-0.53232676 -1.1892632 2.3587546
0.11491942 -0.4935491 3.015599
-0.8755315 -0.9310828 2.324754
-0.69473183 -0.9947866 2.434535
0.08323612 -1.1606331 2.0109577
-0.52734464 -0.9928002 1.8366733
0.118082136 -1.1908469 2.4519455
0.5664374 -1.2283459 2.367667
0.5291403 -1.2497141 2.1076834
-0.4445272 -1.0381442 2.0110192
0.29285344 -1.1672726 2.3165507
0.33807045 -1.1795832 2.3638568
-0.5340448 -1.0124491 2.6246772
0.29332238 -1.1451702 2.0351264
0.5953191 -1.0342373 1.8967406
0.42554396 -1.0973741 1.8352495
-0.08359333 -1.0552272 1.6372697
1.3088634 0.036557745 1.6806376
-0.18388903 -1.0933777 2.580718
0.40427634 -1.0958863 2.1967378
0.774881 -0.2896395 1.6896429
-0.5482449 -0.87274456 2.0634663
-0.28565392 -0.9445456 2.0987191
1.8637819 0.34335628 2.1594098
1.7519699 0.36140755 2.2055495
-0.04361156 -0.9454271 1.5024668
-0.3190167 -1.068491 2.6273007
-0.049855784 -0.97587067 1.6874408
1.824676 0.39007017 2.5628586
0.33318862 -1.0672741 2.52773
0.60367095 0.16324371 1.4915695
0.6203342 -1.035829 2.2131612
0.23103686 -1.094103 2.2279716
1.6636354 0.40241498 2.5123503
1.8355131 0.55847645 2.616002
1.0734739 -0.18480206 1.8816473
0.9345606 0.4352663 1.3224227
1.175802 0.31447566 2.0292256
0.124363534 -0.16734298 3.8057778
0.8393984 -1.0604162 2.072642
-0.30511856 -0.84531516 3.2340572
0.8267626 -0.25154445 2.8795981
-0.46804446 -1.0563396 4.169106
0.49768376 0.13195615 3.314117
0.12540741 -0.30247918 3.9077423
0.90968233 -0.64095354 1.7712388
0.6144514 -1.0924577 0.91039276
0.5077455 -1.0154929 1.5243533
0.7526732 0.46720532 1.4600507
0.33474487 -0.20483083 3.9345648
1.9413162 0.33688945 1.7985847
2.0329895 0.34029934 1.8124739
1.222905 -0.41997945 2.5217054
0.43286383 0.73657405 1.4511473
0.8182323 0.13275282 3.033388
1.1586359 0.046880398 2.6922367
0.643119 0.15698324 1.5356563
0.57509863 0.62768084 1.7053816
0.37538078 0.81206524 1.8884838
-0.40897542 0.67709583 1.6664773
0.7355725 0.53695154 2.9676502
-0.5297144 0.4690821 4.3491654
0.85654426 0.33579075 1.7365923
0.8639763 0.85943645 2.3223815
-1.1027803 0.82298076 1.5792102
0.97134745 0.6202948 2.796739
-0.27054408 -0.48101398 1.0488086
0.9394306 0.80608505 2.608633
-1.2800043 0.80281335 2.4220586
1.0509146 0.6931358 2.3670967
-0.8841464 0.69927835 2.1802964
0.30179864 1.0969877 2.687524
0.2088622 -0.45082957 0.95843315
-1.5527331 0.8980397 2.5220528
0.8592958 0.7053676 1.8821456
-0.88796645 0.6818499 2.18227
0.037795316 1.033865 2.2201746
1.0786818 0.085369624 3.3894243
-0.47457108 -0.6242799 1.1396103
-0.6060424 -0.49470443 3.2637408
-0.19117706 -0.46233997 0.74959373
1.3168232 0.31617942 1.3609881
0.014371613 0.94695246 2.750156
0.5495249 0.7214907 1.7163247
-0.71208316 0.60065246 2.649878
0.024099013 0.8738655 2.2159078
0.5487369 0.980255 2.2066765
-0.48860776 -0.76664525 3.9495447
-0.6514953 -0.7676599 0.89337254
-0.8257327 0.60082155 2.1802232
-1.1886715 -1.3107488 3.248214
0.34617558 -0.17911449 4.114138
-0.3016945 0.6502378 2.8919601
-0.8466463 0.5654706 2.3087955
-0.33399293 0.7721062 1.7231423
-0.17371699 0.74864465 1.6252869
-0.18063241 0.9812966 2.0687232
1.5281467 0.439759 1.9072825
-1.6711854 0.84544307 2.1377647
-0.3076688 -1.4097233 3.5552654
-0.12529765 0.4093209 1.3327484
0.14070456 -0.43471873 3.2182446
-0.35612002 0.77337253 2.6047575
0.49269053 -0.24594024 3.8643363
0.60518336 0.103436336 3.88028
0.26074925 1.1324846 1.7753658
-0.4896987 0.33887908 3.004887
1.7933359 0.5524609 2.5496895
0.8113725 0.5845232 4.0611453
0.110886365 -0.96666425 3.9954329
0.4672027 -0.109525375 4.542163
-0.4830475 0.3328197 3.1383975
-0.118616104 -1.1884091 3.648938
-0.34055242 -0.8861644 1.488835
-0.29438838 -0.59938216 1.5223067
0.41140753 -0.48132324 4.0730505
-0.9462624 0.20240055 2.1251411
0.14235659 -1.7055256 3.0935926
-0.57623374 0.82662314 2.412125
-0.60209465 0.2802955 3.0068796
0.42329258 -0.9592611 2.9916275
-0.22900045 -0.89761865 1.4539682
-0.96226853 -0.54728544 2.278417
0.22544833 -0.03796064 3.4191985
-0.40809023 -0.91456044 1.7942296
-0.9812304 -0.7268377 2.1972647
0.6096823 -1.0979514 2.8452845
-0.13513596 -0.9545399 1.6151435
0.16287637 0.5874162 3.0690382
-0.011233105 -0.45067412 3.0401456
-0.48940608 0.11967618 3.0841715
0.66739035 -0.108914845 3.658688
-0.8953924 -0.22532229 2.3236423
0.30784875 -0.94090164 2.5962923
-0.6152278 -0.9013611 2.035886
-0.61172044 -0.8850308 2.581237
-0.1325697 -0.041884467 3.2351282
-0.69160974 -0.32515395 2.5630364
1.4605865 0.21094766 2.6640058
-0.34779736 -1.2397616 2.6139936
-0.38832647 -1.1958702 2.6191087
-0.5758497 -1.175029 1.9787647
-0.15934134 -1.242076 2.6563487
-0.46050733 -1.240033 2.319356
-0.22321531 -1.1720041 2.209702
0.08403345 -1.2113081 2.2736979
-0.42241338 -1.1555158 2.1160254
-0.24696314 -0.84562224 1.6112019
-0.50088966 -0.8235808 1.725291
0.691944 -1.0803534 1.9868448
1.0064588 -1.100661 2.3630075
-0.3826669 -0.88920045 1.9217409
-0.16945139 -1.0205346 2.3566594
0.7303793 -1.0570552 1.9613914
0.27902284 -1.0896618 2.0101688
0.9432488 0.0139251165 3.2364376
1.2470552 0.053183995 1.6777229
0.89240915 -0.34043145 1.8251133
1.033889 0.20956758 1.4257023
0.05503451 -0.93222064 2.1489692
0.71048117 -0.40472656 1.7000926
1.0262185 -0.13771826 1.7588031
-0.36249316 -0.98225886 2.1305988
1.0146052 -0.8356615 2.1068957
0.12002747 -0.93765926 1.4353913
0.06416809 -1.0029223 2.0618818
1.1501297 -0.8209768 2.0907514
0.4614204 -0.81561714 1.6850787
1.2249726 0.47756612 2.5789697
0.7599163 -0.98175824 2.015192
0.5461031 -1.2199609 2.5649765
1.05799 -0.22656941 1.7209316
1.4233155 1.2412832 3.3612096
0.80880785 -1.1503911 2.1104789
0.22002535 -0.19273603 3.732925
0.89406115 -1.0355707 2.0249972
1.3127953 -0.5172394 2.1394842
0.6860301 0.73482025 1.5005667
0.6919001 0.2083733 3.338256
0.70937896 -0.02303503 1.5765467
0.02986576 -0.42642242 3.1355915
0.41159782 -0.0115532 3.5427144
0.3723917 0.29461303 1.3041698
0.40761548 0.08432435 3.6429088
0.44851956 -0.24013433 3.3437214
0.50744873 -0.15763195 1.498562
0.6432387 0.40420195 1.631236
0.2942795 0.8148867 1.7077146
0.781048 -0.07136248 3.1315126
0.8343814 0.6202765 2.0109353
1.110585 0.51166254 2.825068
0.7013611 0.5555546 2.9817374
0.8174222 0.2600489 1.6543303
-0.29222488 0.3015461 3.6605697
-0.6297407 0.5817051 1.073976
1.0668626 0.68769646 2.5089269
-0.43205643 0.4883232 3.6671777
-0.5735464 0.5604881 3.0238888
0.3479576 -0.083358005 3.9001634
0.62147427 1.0187508 2.5024295
0.31311435 -0.06939697 3.9468257
-0.2556835 0.21193314 3.9168255
0.7923808 0.871138 2.635725
1.8047746 0.5129715 1.981197
-0.6340652 0.19450234 3.249749
0.71629524 -0.0835865 4.467484
0.5650424 1.0139498 2.410567
0.84941787 0.84562445 2.2970457
1.1984571 0.42804307 2.0317652
-0.1512522 0.68023276 2.9947286
-1.2154939 0.7881186 2.4050262
1.104927 0.1590437 1.6353636
-0.1650064 -0.17261645 3.9347882
0.37004516 -0.62146246 1.0579203
-0.32784688 0.20051286 3.2013016
-0.7001657 -0.4660623 1.0448893
0.19536752 0.9366449 2.8232732
0.3183781 0.8879304 1.7204888
0.5513633 1.0196221 2.1903405
-0.4872001 -0.7172295 0.8027116
-0.5203823 0.8113224 2.17421
-0.20235996 -0.37010923 4.0786934
1.158309 0.55230236 1.2318906
0.16071205 -0.2761927 3.4544752
0.9646955 0.5009722 2.6715288
-0.5881821 -0.8640413 1.4450431
0.7022946 0.7230759 1.5241439
0.4307118 0.27440178 0.83177245
-0.5357905 0.60285103 1.8548375
-0.41881585 0.54435146 1.5797158
-0.021589752 0.94838196 1.7792702
-0.44687858 0.80016536 2.6688125
0.72416335 -0.10984499 4.273198
0.8556282 0.53193295 2.8787558
-0.5827299 0.666059 2.7646992
-0.775969 0.7449865 2.59978
1.7841281 0.3074742 2.653333
-1.0191395 0.26976594 2.5305176
-0.032449994 -1.1607592 3.234608
0.123986624 -1.0359334 3.5000772
0.58143085 -0.35079622 3.1132782
-0.5998919 0.75745976 2.7480183
0.15600558 -0.96883386 3.9807053
-0.51713955 -0.93040603 2.8148944
-0.22659686 -0.87815267 1.4608464
-0.9805912 0.052113686 2.5797527
-0.27579504 -0.8026814 0.70218295
-0.6705842 -0.17266257 2.8419907
-0.48985898 0.37130907 3.0711432
-0.29566535 -0.42691278 1.1195126
-0.22401664 -0.20212851 1.4380476
-0.34012583 -0.8476577 1.1663234
-0.34686744 -1.0385423 2.706751
-0.79994315 0.47084922 1.9365582
0.026685715 0.6328707 3.110383
-0.76713943 0.1952982 2.7904124
-0.28708267 -0.93992996 1.909131
-0.18628693 -0.7850218 1.3328562
-0.96063423 0.011515617 2.4707093
0.34129143 -1.1447725 1.783678
-0.9592201 0.5090138 2.1030023
-0.65586245 0.27237836 2.9370444
1.0552906 -0.73998183 3.5424874
-1.4358501 0.80767995 1.9330194
-0.48574463 -0.84993196 2.6937468
-0.0317791 -1.120425 2.2961247
0.15951195 -1.0690849 2.5684252
1.2077627 -1.0839151 0.306326
-0.05888701 -1.048649 1.6075227
-1.214838 1.4026892 4.7727036
-0.31600454 -0.82904744 2.705935
-0.8252909 -0.12173759 2.6332483
-0.45249143 -1.0177958 2.548306
-0.91857284 -0.14715391 2.6058624
1.2570753 -0.49634033 2.4806259
1.7694485 0.44365457 2.6528397
-0.42287552 -0.501904 2.5930765
